<?xml version="1.0" encoding="UTF-8"?>
<svg id="Layer_2" data-name="Layer 2" xmlns="http://www.w3.org/2000/svg" xmlns:xlink="http://www.w3.org/1999/xlink" viewBox="0 0 424.32 365.77">
  <defs>
    <style>
      .cls-1 {
        fill: url(#linear-gradient);
      }

      .cls-1, .cls-2, .cls-3 {
        stroke-width: 0px;
      }

      .cls-2 {
        fill: url(#linear-gradient-2);
      }

      .cls-3 {
        fill: #555;
      }
    </style>
    <linearGradient id="linear-gradient" x1="83.84" y1="185.09" x2="424.32" y2="185.09" gradientTransform="translate(0 367.11) scale(1 -1)" gradientUnits="userSpaceOnUse">
      <stop offset="0" stop-color="#eee"/>
      <stop offset=".09" stop-color="#cecece"/>
      <stop offset=".22" stop-color="#a9a9a9"/>
      <stop offset=".35" stop-color="#8a8a8a"/>
      <stop offset=".49" stop-color="#737373"/>
      <stop offset=".64" stop-color="#626262"/>
      <stop offset=".8" stop-color="#585858"/>
      <stop offset="1" stop-color="#555"/>
    </linearGradient>
    <linearGradient id="linear-gradient-2" x1="373.84" y1="98.12" x2="20.23" y2="98.12" xlink:href="#linear-gradient"/>
  </defs>
  <g id="Layer_1-2" data-name="Layer 1">
    <path class="cls-1" d="m183.13,18.02l-99.29,181.31s18.75,49.34,58.13,20.76l58.23-101.7s7.32-17.43,13.25-.7l92.36,173.92s37.64,69.2,90.62,72.41h27.88L233.32,22.19s-26.34-47.01-50.19-4.18h0Z"/>
    <path class="cls-3" d="m137.82,238.78c-.22.11-21.22,51.56-21.22,51.56,0,0-35.85,70.14-88.73,74.72l-27.87.72,76.58-145.69s61.46,18.57,61.24,18.68h0Z"/>
    <path class="cls-2" d="m86.78,193.52l-57.01,116.23s-40.46,90.09,45.28,38.16l102.36-78.91s113.82-80.41,196.43,4.67c0,0-4.75-66.57-67.84-93.06,0,0-42.1-16.8-88.94,2.96-11.15,4.7-53.61,26.14-72.27,32.24-7.6,2.49-44.97,16.38-58.01-22.3h-.01Z"/>
  </g>
</svg>